<svg xmlns="http://www.w3.org/2000/svg" viewBox="0 0 480 320" role="img" aria-labelledby="title desc">
  <title id="title">Usina solar SolarInvest</title>
  <desc id="desc">Ilustração minimalista de uma usina solar com o sol e o logotipo SolarInvest em tons laranja e verde.</desc>
  <defs>
    <linearGradient id="bg" x1="0%" y1="0%" x2="0%" y2="100%">
      <stop offset="0%" stop-color="#fff4e6" />
      <stop offset="55%" stop-color="#fff9f2" />
      <stop offset="100%" stop-color="#f1f5f9" />
    </linearGradient>
    <linearGradient id="panel" x1="0%" y1="0%" x2="100%" y2="100%">
      <stop offset="0%" stop-color="#2563eb" stop-opacity="0.85" />
      <stop offset="100%" stop-color="#0f172a" stop-opacity="0.9" />
    </linearGradient>
    <linearGradient id="panelHighlight" x1="0%" y1="0%" x2="100%" y2="0%">
      <stop offset="0%" stop-color="#d9e8ff" stop-opacity="0.9" />
      <stop offset="100%" stop-color="#9dc5ff" stop-opacity="0.6" />
    </linearGradient>
    <radialGradient id="sun" cx="50%" cy="50%" r="50%">
      <stop offset="0%" stop-color="#ffe59a" />
      <stop offset="60%" stop-color="#ffc26b" />
      <stop offset="100%" stop-color="#f7931e" />
    </radialGradient>
    <linearGradient id="ground" x1="0%" y1="0%" x2="100%" y2="0%">
      <stop offset="0%" stop-color="#a9cf46" />
      <stop offset="100%" stop-color="#7bb031" />
    </linearGradient>
    <filter id="shadow" x="-10%" y="-10%" width="120%" height="140%" color-interpolation-filters="sRGB">
      <feDropShadow dx="0" dy="12" stdDeviation="14" flood-color="#0f172a" flood-opacity="0.18" />
    </filter>
  </defs>
  <rect width="480" height="320" fill="url(#bg)" rx="28" />
  <g transform="translate(0, 180)">
    <rect x="0" y="80" width="480" height="60" fill="url(#ground)" />
    <path d="M0 90 L480 40 L480 140 L0 140 Z" fill="#dceefb" opacity="0.35" />
  </g>
  <g transform="translate(360 60)">
    <circle cx="40" cy="40" r="40" fill="url(#sun)" />
    <path d="M52 12 L20 64 h24l-10 44 44-64h-24z" fill="#ffffff" filter="url(#shadow)" />
  </g>
  <g transform="translate(48 118)" filter="url(#shadow)">
    <rect x="0" y="0" width="240" height="120" rx="18" fill="#fef2dd" stroke="#f7931e" stroke-opacity="0.45" />
    <g transform="translate(24 26)">
      <g>
        <rect x="0" y="0" width="84" height="56" rx="10" fill="url(#panel)" />
        <rect x="0" y="0" width="84" height="12" fill="url(#panelHighlight)" opacity="0.75" />
        <path d="M0 24 H84" stroke="#60a5fa" stroke-opacity="0.45" />
        <path d="M0 40 H84" stroke="#60a5fa" stroke-opacity="0.45" />
        <path d="M20 0 V56" stroke="#60a5fa" stroke-opacity="0.3" />
        <path d="M44 0 V56" stroke="#60a5fa" stroke-opacity="0.3" />
        <path d="M64 0 V56" stroke="#60a5fa" stroke-opacity="0.3" />
      </g>
      <g transform="translate(98 0)">
        <rect x="0" y="0" width="84" height="56" rx="10" fill="url(#panel)" />
        <rect x="0" y="0" width="84" height="12" fill="url(#panelHighlight)" opacity="0.75" />
        <path d="M0 24 H84" stroke="#60a5fa" stroke-opacity="0.45" />
        <path d="M0 40 H84" stroke="#60a5fa" stroke-opacity="0.45" />
        <path d="M20 0 V56" stroke="#60a5fa" stroke-opacity="0.3" />
        <path d="M44 0 V56" stroke="#60a5fa" stroke-opacity="0.3" />
        <path d="M64 0 V56" stroke="#60a5fa" stroke-opacity="0.3" />
      </g>
      <path d="M-6 64 H186" stroke="#f7931e" stroke-width="6" stroke-linecap="round" />
      <path d="M12 64 l-6 26" stroke="#334155" stroke-width="4" stroke-linecap="round" />
      <path d="M172 64 l6 26" stroke="#334155" stroke-width="4" stroke-linecap="round" />
    </g>
  </g>
  <g transform="translate(320 188)" filter="url(#shadow)">
    <rect x="0" y="0" width="120" height="68" rx="18" fill="#ffffff" stroke="#f7931e" stroke-opacity="0.5" />
    <text x="60" y="36" text-anchor="middle" font-family="'Montserrat', 'Open Sans', sans-serif" font-weight="700" font-size="20" fill="#f7931e">SolarInvest</text>
  </g>
</svg>
