<svg xmlns="http://www.w3.org/2000/svg" viewBox="0 0 164 164" role="img" aria-labelledby="title desc">
  <title>Contato SolarInvest no WhatsApp</title>
  <desc>Escaneie para falar com o time comercial via WhatsApp.</desc>
  <defs>
    <linearGradient id="qr-core" x1="0" y1="0" x2="1" y2="1">
      <stop offset="0%" stop-color="#ffb347" />
      <stop offset="100%" stop-color="#ff7a18" />
    </linearGradient>
  </defs>
  <rect width="164" height="164" rx="20" fill="#ffffff" stroke="#0c162c" stroke-width="4" />
  <g fill="#0c162c">
    <rect x="16" y="16" width="36" height="36" rx="6" />
    <rect x="112" y="16" width="36" height="36" rx="6" />
    <rect x="16" y="112" width="36" height="36" rx="6" />
  </g>
  <g fill="#ffffff">
    <rect x="26" y="26" width="16" height="16" />
    <rect x="122" y="26" width="16" height="16" />
    <rect x="26" y="122" width="16" height="16" />
  </g>
  <g fill="#0c162c">
    <rect x="64" y="16" width="12" height="12" rx="2" />
    <rect x="84" y="16" width="12" height="12" rx="2" />
    <rect x="100" y="40" width="12" height="12" rx="2" />
    <rect x="52" y="44" width="12" height="12" rx="2" />
    <rect x="72" y="60" width="12" height="12" rx="2" />
    <rect x="92" y="60" width="12" height="12" rx="2" />
    <rect x="116" y="64" width="12" height="12" rx="2" />
    <rect x="48" y="76" width="12" height="12" rx="2" />
    <rect x="80" y="80" width="12" height="12" rx="2" />
    <rect x="104" y="88" width="12" height="12" rx="2" />
    <rect x="128" y="92" width="12" height="12" rx="2" />
    <rect x="60" y="96" width="12" height="12" rx="2" />
    <rect x="84" y="108" width="12" height="12" rx="2" />
    <rect x="108" y="112" width="12" height="12" rx="2" />
    <rect x="132" y="120" width="12" height="12" rx="2" />
    <rect x="72" y="124" width="12" height="12" rx="2" />
    <rect x="96" y="132" width="12" height="12" rx="2" />
    <rect x="52" y="132" width="12" height="12" rx="2" />
    <rect x="120" y="136" width="12" height="12" rx="2" />
  </g>
  <g transform="translate(60 62)">
    <circle cx="22" cy="22" r="22" fill="url(#qr-core)" />
    <path
      d="M18.6 9c.6-.9 1.6-1.5 2.7-1.5h14.5c1.4 0 2 1.7 1 2.6L28.2 21.4h9.7c1.5 0 2.3 1.8 1.2 2.9L20.8 43c-.6.6-1.7.2-1.6-.6l1.2-9.8h-8.8c-1.5 0-2.3-1.8-1.3-2.9Z"
      fill="#ffffff"
    />
  </g>
</svg>
