<svg xmlns="http://www.w3.org/2000/svg" viewBox="0 0 164 164" role="img" aria-labelledby="title desc">
  <title>Contato SolarInvest no WhatsApp</title>
  <desc>Escaneie para abrir https://wa.me/5562999999999 no WhatsApp.</desc>
  <defs>
    <linearGradient id="qr-bg" x1="0" y1="0" x2="1" y2="1">
      <stop offset="0%" stop-color="#fff7ed" />
      <stop offset="100%" stop-color="#fde68a" />
    </linearGradient>
  </defs>
  <rect width="164" height="164" rx="20" fill="url(#qr-bg)" stroke="#fb923c" stroke-width="4" />
  <g fill="#0f172a">
    <rect x="16" y="16" width="36" height="36" rx="6" />
    <rect x="112" y="16" width="36" height="36" rx="6" />
    <rect x="16" y="112" width="36" height="36" rx="6" />
  </g>
  <g fill="#f8fafc">
    <rect x="26" y="26" width="16" height="16" />
    <rect x="122" y="26" width="16" height="16" />
    <rect x="26" y="122" width="16" height="16" />
  </g>
  <g fill="#0f172a">
    <rect x="64" y="16" width="12" height="12" />
    <rect x="84" y="16" width="12" height="12" />
    <rect x="104" y="60" width="12" height="12" />
    <rect x="64" y="60" width="12" height="12" />
    <rect x="84" y="60" width="12" height="12" />
    <rect x="48" y="60" width="12" height="12" />
    <rect x="76" y="76" width="12" height="12" />
    <rect x="100" y="84" width="12" height="12" />
    <rect x="124" y="84" width="12" height="12" />
    <rect x="52" y="84" width="12" height="12" />
    <rect x="76" y="96" width="12" height="12" />
    <rect x="96" y="112" width="12" height="12" />
    <rect x="120" y="120" width="12" height="12" />
    <rect x="68" y="120" width="12" height="12" />
    <rect x="88" y="132" width="12" height="12" />
    <rect x="52" y="132" width="12" height="12" />
  </g>
  <g transform="translate(61 67)">
    <circle cx="21" cy="21" r="21" fill="#0f172a" />
    <path
      fill="#22c55e"
      d="M20.9 11c-5.4 0-9.9 4.4-9.9 9.8 0 1.9.6 3.8 1.6 5.4l-1.6 6.1 5.9-1.6c1.5.9 3.2 1.4 4.9 1.4 5.4 0 9.8-4.4 9.8-9.8 0-5.4-4.4-9.8-9.8-9.8Zm4.7 14.2c-.2.5-1.2 1-1.7 1.1-.4.1-.8.2-1.3-.1-.4-.2-1.3-.4-2.5-1.1-2.2-1.2-3.6-3.9-3.7-4-.1-.1-.6-.8-.6-1.5 0-.7.3-1.1.5-1.2.2-.2.5-.2.7-.2h.5c.2 0 .5-.1.7.5.2.6.9 2.2 1 2.3.1.1.1.3.2.5.1.2.1.4-.1.6-.2.2-.3.4-.5.6-.2.2-.3.4-.1.6.2.2 1 1.5 2.4 2.4 1.6 1.1 1.9 1.1 2.2.9.3-.2.9-1 .1-1.1Z"
    />
  </g>
</svg>
